<svg width="70" height="70" viewBox="0 0 70 70" fill="none" xmlns="http://www.w3.org/2000/svg">
<path d="M35.0007 49.5834C35.827 49.5834 36.5202 49.3034 37.0802 48.7434C37.6402 48.1834 37.9193 47.4912 37.9173 46.6667C37.9154 45.8423 37.6354 45.15 37.0773 44.59C36.5193 44.03 35.827 43.75 35.0007 43.75C34.1743 43.75 33.482 44.03 32.924 44.59C32.3659 45.15 32.0859 45.8423 32.084 46.6667C32.082 47.4912 32.362 48.1843 32.924 48.7463C33.4859 49.3082 34.1782 49.5873 35.0007 49.5834ZM35.0007 37.9167C35.827 37.9167 36.5202 37.6367 37.0802 37.0767C37.6402 36.5167 37.9193 35.8245 37.9173 35V23.3334C37.9173 22.507 37.6373 21.8148 37.0773 21.2567C36.5173 20.6987 35.8251 20.4187 35.0007 20.4167C34.1762 20.4148 33.484 20.6948 32.924 21.2567C32.364 21.8187 32.084 22.5109 32.084 23.3334V35C32.084 35.8264 32.364 36.5196 32.924 37.0796C33.484 37.6396 34.1762 37.9187 35.0007 37.9167ZM35.0007 64.1667C30.9659 64.1667 27.1743 63.4006 23.6257 61.8684C20.077 60.3362 16.9902 58.2585 14.3652 55.6355C11.7402 53.0124 9.6626 49.9256 8.13232 46.375C6.60204 42.8245 5.83593 39.0328 5.83399 35C5.83204 30.9673 6.59815 27.1756 8.13232 23.625C9.66649 20.0745 11.7441 16.9877 14.3652 14.3646C16.9863 11.7416 20.0732 9.66393 23.6257 8.13171C27.1782 6.59949 30.9698 5.83337 35.0007 5.83337C39.0315 5.83337 42.8232 6.59949 46.3757 8.13171C49.9282 9.66393 53.015 11.7416 55.6361 14.3646C58.2572 16.9877 60.3358 20.0745 61.8719 23.625C63.408 27.1756 64.1732 30.9673 64.1673 35C64.1615 39.0328 63.3954 42.8245 61.869 46.375C60.3426 49.9256 58.265 53.0124 55.6361 55.6355C53.0072 58.2585 49.9204 60.3371 46.3757 61.8713C42.8309 63.4055 39.0393 64.1706 35.0007 64.1667ZM35.0007 58.3334C41.5145 58.3334 47.0319 56.073 51.5527 51.5521C56.0736 47.0313 58.334 41.5139 58.334 35C58.334 28.4862 56.0736 22.9688 51.5527 18.448C47.0319 13.9271 41.5145 11.6667 35.0007 11.6667C28.4868 11.6667 22.9694 13.9271 18.4486 18.448C13.9277 22.9688 11.6673 28.4862 11.6673 35C11.6673 41.5139 13.9277 47.0313 18.4486 51.5521C22.9694 56.073 28.4868 58.3334 35.0007 58.3334Z" fill="#FF3838"/>
</svg>
