<svg width="30" height="30" viewBox="0 0 30 30" fill="none" xmlns="http://www.w3.org/2000/svg">
<path d="M20 2.5H10C9.00574 2.50099 8.05249 2.8964 7.34945 3.59945C6.6464 4.30249 6.25099 5.25574 6.25 6.25V26.875C6.24978 26.9848 6.27851 27.0928 6.33327 27.1879C6.38804 27.2831 6.46692 27.3622 6.56197 27.4172C6.65701 27.4722 6.76488 27.5012 6.87469 27.5012C6.98451 27.5013 7.0924 27.4724 7.1875 27.4175L15 22.9175L22.8125 27.4175C22.9076 27.4724 23.0155 27.5013 23.1253 27.5012C23.2351 27.5012 23.343 27.4722 23.438 27.4172C23.5331 27.3622 23.612 27.2831 23.6667 27.1879C23.7215 27.0928 23.7502 26.9848 23.75 26.875V6.25C23.749 5.25574 23.3536 4.30249 22.6506 3.59945C21.9475 2.8964 20.9943 2.50099 20 2.5ZM22.5 25.7938L15.3125 21.6537C15.2171 21.6001 15.1095 21.5719 15 21.5719C14.8905 21.5719 14.7829 21.6001 14.6875 21.6537L7.5 25.7938V6.25C7.50099 5.58726 7.7647 4.95195 8.23333 4.48333C8.70196 4.0147 9.33726 3.75099 10 3.75H20C20.6627 3.75099 21.298 4.0147 21.7667 4.48333C22.2353 4.95195 22.499 5.58726 22.5 6.25V25.7938Z" fill="#555555"/>
</svg>
