<svg width="30" height="30" viewBox="0 0 30 30" fill="none" xmlns="http://www.w3.org/2000/svg">
<path fill-rule="evenodd" clip-rule="evenodd" d="M10 2.5C9.00544 2.5 8.05161 2.89509 7.34835 3.59835C6.64509 4.30161 6.25 5.25544 6.25 6.25V26.25C6.25011 26.463 6.30465 26.6724 6.40843 26.8584C6.51221 27.0444 6.6618 27.2008 6.84299 27.3127C7.02419 27.4247 7.23098 27.4885 7.44376 27.4981C7.65653 27.5076 7.86822 27.4627 8.05875 27.3675L15 23.8975L21.9412 27.3675C22.1318 27.4627 22.3435 27.5076 22.5562 27.4981C22.769 27.4885 22.9758 27.4247 23.157 27.3127C23.3382 27.2008 23.4878 27.0444 23.5916 26.8584C23.6954 26.6724 23.7499 26.463 23.75 26.25V6.25C23.75 5.25544 23.3549 4.30161 22.6517 3.59835C21.9484 2.89509 20.9946 2.5 20 2.5H10Z" fill="#40E0D0"/>
</svg>
