<svg width="15" height="15" viewBox="0 0 15 15" fill="none" xmlns="http://www.w3.org/2000/svg">
<path d="M6.60125 9.9425L10.5988 5.945L10.1562 5.5025L6.60125 9.0575L4.82 7.27625L4.3775 7.71875L6.60125 9.9425ZM7.50187 13.125C6.72438 13.125 5.99312 12.9775 5.30813 12.6825C4.62354 12.3871 4.02792 11.9862 3.52125 11.48C3.01458 10.9738 2.61354 10.3787 2.31813 9.695C2.02271 9.01125 1.875 8.28021 1.875 7.50187C1.875 6.72354 2.02271 5.99229 2.31813 5.30813C2.61313 4.62354 3.01333 4.02792 3.51875 3.52125C4.02417 3.01458 4.61938 2.61354 5.30438 2.31813C5.98938 2.02271 6.72062 1.875 7.49813 1.875C8.27562 1.875 9.00688 2.02271 9.69187 2.31813C10.3765 2.61313 10.9721 3.01354 11.4787 3.51938C11.9854 4.02521 12.3865 4.62042 12.6819 5.305C12.9773 5.98958 13.125 6.72062 13.125 7.49813C13.125 8.27562 12.9775 9.00688 12.6825 9.69187C12.3875 10.3769 11.9867 10.9725 11.48 11.4787C10.9733 11.985 10.3783 12.386 9.695 12.6819C9.01167 12.9777 8.28063 13.1254 7.50187 13.125Z" fill="white"/>
</svg>
