<svg width="23" height="20" viewBox="0 0 23 20" fill="none" xmlns="http://www.w3.org/2000/svg">
<path d="M12.3385 4.14062C12.7937 3.86719 13.0972 3.37109 13.0972 2.8125C13.0972 1.94922 12.3825 1.25 11.5 1.25C10.6175 1.25 9.90278 1.94922 9.90278 2.8125C9.90278 3.375 10.2063 3.86719 10.6615 4.14062L8.37344 8.61719C8.01007 9.32812 7.06771 9.53125 6.43281 9.03516L2.875 6.25C3.07465 5.98828 3.19444 5.66406 3.19444 5.3125C3.19444 4.44922 2.47969 3.75 1.59722 3.75C0.714757 3.75 0 4.44922 0 5.3125C0 6.17578 0.714757 6.875 1.59722 6.875H1.62517L3.45 16.6953C3.66962 17.8828 4.72778 18.75 5.96562 18.75H17.0344C18.2682 18.75 19.3264 17.8867 19.55 16.6953L21.3748 6.875H21.4028C22.2852 6.875 23 6.17578 23 5.3125C23 4.44922 22.2852 3.75 21.4028 3.75C20.5203 3.75 19.8056 4.44922 19.8056 5.3125C19.8056 5.66406 19.9253 5.98828 20.125 6.25L16.5672 9.03516C15.9323 9.53125 14.9899 9.32812 14.6266 8.61719L12.3385 4.14062Z" fill="#FFCE2B"/>
</svg>
