<svg width="23" height="23" viewBox="0 0 23 23" fill="none" xmlns="http://www.w3.org/2000/svg">
<g clip-path="url(#clip0_474_3265)">
<path d="M20.6555 3.83333C20.5684 3.82436 20.4806 3.82436 20.3935 3.83333H2.50463C2.38997 3.8351 2.27608 3.85229 2.16602 3.88444L11.398 13.0781L20.6555 3.83333Z" fill="#40E0D0"/>
<path d="M21.6007 4.72137L12.2985 13.9853C12.0591 14.2233 11.7352 14.3568 11.3976 14.3568C11.0601 14.3568 10.7362 14.2233 10.4968 13.9853L1.27763 4.79165C1.24929 4.89582 1.23426 5.00315 1.23291 5.1111V17.8889C1.23291 18.2278 1.36753 18.5528 1.60716 18.7924C1.84679 19.032 2.1718 19.1667 2.51069 19.1667H20.3996C20.7385 19.1667 21.0635 19.032 21.3031 18.7924C21.5427 18.5528 21.6774 18.2278 21.6774 17.8889V5.1111C21.6723 4.97799 21.6464 4.84649 21.6007 4.72137ZM3.38597 17.8889H2.49791V16.9753L7.14263 12.3689L8.04347 13.2697L3.38597 17.8889ZM20.3868 17.8889H19.4924L14.8349 13.2697L15.7357 12.3689L20.3804 16.9753L20.3868 17.8889Z" fill="#40E0D0"/>
</g>
<defs>
<clipPath id="clip0_474_3265">
<rect width="23" height="23" fill="white"/>
</clipPath>
</defs>
</svg>
