<svg width="23" height="23" viewBox="0 0 23 23" fill="none" xmlns="http://www.w3.org/2000/svg">
<g clip-path="url(#clip0_1296_4941)">
<path d="M22.7763 9.24772H21.85V9.2H11.5V13.8H17.9992C17.0511 16.4778 14.5032 18.4 11.5 18.4C7.68947 18.4 4.6 15.3105 4.6 11.5C4.6 7.68947 7.68947 4.6 11.5 4.6C13.2589 4.6 14.8591 5.26355 16.0776 6.34742L19.3303 3.09465C17.2764 1.18047 14.5291 0 11.5 0C5.14912 0 0 5.14912 0 11.5C0 17.8509 5.14912 23 11.5 23C17.8509 23 23 17.8509 23 11.5C23 10.7289 22.9206 9.97625 22.7763 9.24772Z" fill="#FFC107"/>
<path d="M1.32617 6.14732L5.1045 8.91825C6.12685 6.3871 8.6028 4.6 11.5002 4.6C13.2591 4.6 14.8594 5.26355 16.0778 6.34742L19.3306 3.09465C17.2767 1.18047 14.5293 0 11.5002 0C7.08307 0 3.25242 2.49377 1.32617 6.14732Z" fill="#FF3D00"/>
<path d="M11.4991 22.9999C14.4696 22.9999 17.1686 21.8632 19.2093 20.0145L15.65 17.0027C14.4568 17.9106 12.9985 18.4016 11.4991 18.3999C8.50796 18.3999 5.96818 16.4927 5.01138 13.831L1.26123 16.7204C3.16448 20.4446 7.02963 22.9999 11.4991 22.9999Z" fill="#4CAF50"/>
<path d="M22.7763 9.24772H21.85V9.2H11.5V13.8H17.9992C17.5457 15.0744 16.7287 16.1881 15.6492 17.0033L15.6509 17.0022L19.2102 20.014C18.9583 20.2429 23 17.25 23 11.5C23 10.7289 22.9206 9.97625 22.7763 9.24772Z" fill="#1976D2"/>
</g>
<defs>
<clipPath id="clip0_1296_4941">
<rect width="23" height="23" fill="white"/>
</clipPath>
</defs>
</svg>
