<svg width="30" height="30" viewBox="0 0 30 30" fill="none" xmlns="http://www.w3.org/2000/svg">
<path d="M15 6.87498L14.325 7.52498C14.4125 7.61572 14.5173 7.68789 14.6333 7.73718C14.7493 7.78648 14.874 7.81188 15 7.81188C15.126 7.81188 15.2507 7.78648 15.3667 7.73718C15.4827 7.68789 15.5875 7.61572 15.675 7.52498L15 6.87498ZM11.7825 22.9025C9.8875 21.4087 7.81625 19.95 6.1725 18.1C4.5625 16.285 3.4375 14.1687 3.4375 11.4212H1.5625C1.5625 14.7537 2.95 17.2962 4.77125 19.345C6.55875 21.3575 8.83875 22.97 10.6213 24.375L11.7825 22.9025ZM3.4375 11.4212C3.4375 8.73373 4.95625 6.47873 7.03 5.52998C9.045 4.60873 11.7525 4.85248 14.325 7.52498L15.675 6.22623C12.625 3.05498 9.08 2.53123 6.25 3.82498C3.4825 5.09123 1.5625 8.03123 1.5625 11.4212H3.4375ZM10.6213 24.375C11.2625 24.88 11.95 25.4175 12.6462 25.825C13.3425 26.2325 14.1375 26.5625 15 26.5625V24.6875C14.6125 24.6875 14.1575 24.5375 13.5925 24.2062C13.0262 23.8762 12.44 23.4212 11.7825 22.9025L10.6213 24.375ZM19.3787 24.375C21.1613 22.9687 23.4412 21.3587 25.2288 19.345C27.05 17.295 28.4375 14.7537 28.4375 11.4212H26.5625C26.5625 14.1687 25.4375 16.285 23.8275 18.1C22.1838 19.95 20.1125 21.4087 18.2175 22.9025L19.3787 24.375ZM28.4375 11.4212C28.4375 8.03123 26.5187 5.09123 23.75 3.82498C20.92 2.53123 17.3775 3.05498 14.325 6.22498L15.675 7.52498C18.2475 4.85373 20.955 4.60873 22.97 5.52998C25.0437 6.47873 26.5625 8.73248 26.5625 11.4212H28.4375ZM18.2175 22.9025C17.56 23.4212 16.9738 23.8762 16.4075 24.2062C15.8413 24.5362 15.3875 24.6875 15 24.6875V26.5625C15.8625 26.5625 16.6575 26.2312 17.3538 25.825C18.0513 25.4175 18.7375 24.88 19.3787 24.375L18.2175 22.9025Z" fill="#555555"/>
</svg>
