<svg width="35" height="35" viewBox="0 0 35 35" fill="none" xmlns="http://www.w3.org/2000/svg">
<path d="M8.74935 27.7086H14.1335V20.3046C14.1335 19.9712 14.2468 19.6917 14.4733 19.4661C14.6989 19.2396 14.9784 19.1263 15.3118 19.1263H19.6868C20.0203 19.1263 20.3003 19.2396 20.5268 19.4661C20.7524 19.6917 20.8652 19.9712 20.8652 20.3046V27.7086H26.2493V15.0328C26.2493 14.883 26.2168 14.7469 26.1516 14.6244C26.0865 14.5019 25.9975 14.395 25.8848 14.3036L18.0331 8.38568C17.8834 8.2554 17.7055 8.19026 17.4993 8.19026C17.2932 8.19026 17.1158 8.2554 16.9671 8.38568L9.11393 14.3036C9.00213 14.3969 8.91317 14.5039 8.84706 14.6244C8.78095 14.745 8.74838 14.8811 8.74935 15.0328V27.7086ZM7.29102 27.7086V15.0328C7.29102 14.6594 7.37463 14.306 7.54185 13.9726C7.70907 13.6391 7.93949 13.3644 8.2331 13.1486L16.0862 7.20151C16.4975 6.88748 16.9671 6.73047 17.495 6.73047C18.0229 6.73047 18.4954 6.88748 18.9125 7.20151L26.7656 13.1471C27.0602 13.363 27.2906 13.6381 27.4568 13.9726C27.6241 14.306 27.7077 14.6594 27.7077 15.0328V27.7086C27.7077 28.0994 27.5623 28.4402 27.2716 28.7309C26.9809 29.0216 26.6402 29.1669 26.2493 29.1669H20.5852C20.2507 29.1669 19.9707 29.0542 19.7452 28.8286C19.5196 28.6021 19.4068 28.3221 19.4068 27.9886V20.5861H15.5918V27.9886C15.5918 28.323 15.4791 28.603 15.2535 28.8286C15.028 29.0542 14.7484 29.1669 14.415 29.1669H8.74935C8.35852 29.1669 8.01775 29.0216 7.72706 28.7309C7.43636 28.4402 7.29102 28.0994 7.29102 27.7086Z" fill="#666666"/>
</svg>
