<svg width="26" height="23" viewBox="0 0 26 23" fill="none" xmlns="http://www.w3.org/2000/svg">
<g clip-path="url(#clip0_474_3253)">
<path d="M13 0.112305C20.1816 0.112305 26 4.68086 26 10.3141C26 15.9473 20.1816 20.5158 13 20.5158C12.2101 20.5158 11.4382 20.4619 10.6889 20.3541C9.93958 20.8797 5.60625 23.9074 5.19549 23.9658C5.19549 23.9658 5.02847 24.0287 4.88403 23.9478C4.73958 23.867 4.76667 23.6469 4.76667 23.6469C4.81181 23.3504 5.89514 19.6398 6.09375 18.9525C2.43299 17.1512 0 13.9527 0 10.3096C0 4.67637 5.8184 0.112305 13 0.112305ZM3.89097 7.26387C3.48472 7.26387 3.15521 7.5918 3.15521 7.99609C3.15521 8.40039 3.48472 8.72832 3.89097 8.72832H5.06007V13.1621C5.06007 13.5574 5.39861 13.8764 5.80937 13.8764C6.22014 13.8764 6.55868 13.5574 6.55868 13.1621V8.72832H7.72778C8.13403 8.72832 8.46354 8.40039 8.46354 7.99609C8.46354 7.5918 8.13403 7.26387 7.72778 7.26387H3.88646H3.89097ZM10.2465 7.26387C9.75903 7.27285 9.37535 7.64121 9.24896 8.00059L7.45694 12.6994C7.23125 13.4047 7.42986 13.6652 7.63299 13.7596C7.77743 13.827 7.94444 13.8629 8.11146 13.8629C8.42292 13.8629 8.66215 13.7371 8.73438 13.535L9.10451 12.5646H11.3931L11.7632 13.5305C11.8354 13.7326 12.0747 13.8584 12.3861 13.8584C12.5531 13.8584 12.7156 13.8225 12.8646 13.7551C13.0722 13.6607 13.2708 13.4002 13.0406 12.6949L11.2486 8.00059C11.1222 7.64121 10.7385 7.27285 10.2465 7.26387ZM18.4122 7.26387C17.9969 7.26387 17.6628 7.60078 17.6628 8.00957V13.1172C17.6628 13.5305 18.0014 13.8629 18.4122 13.8629C18.8229 13.8629 19.1615 13.526 19.1615 13.1172V11.491L19.4233 11.2305L21.1792 13.5484C21.3236 13.7371 21.5403 13.8449 21.7795 13.8449C21.942 13.8449 22.1 13.7955 22.2309 13.6967C22.3889 13.5754 22.4927 13.4002 22.5198 13.2025C22.5469 13.0049 22.4972 12.8072 22.3753 12.65L20.5292 10.2152L22.2399 8.51719C22.3573 8.40039 22.416 8.23867 22.4069 8.06348C22.3979 7.88828 22.3167 7.72207 22.1858 7.5918C22.0458 7.45254 21.8563 7.37168 21.6712 7.37168C21.5087 7.37168 21.3642 7.43008 21.2559 7.53789L19.166 9.62226V8.01855C19.166 7.60527 18.8274 7.27285 18.4167 7.27285L18.4122 7.26387ZM14.291 7.26387C13.8712 7.26387 13.5281 7.60078 13.5281 8.00957V13.0768C13.5281 13.4541 13.8486 13.7596 14.2458 13.7641H16.6517C17.049 13.7641 17.3694 13.4541 17.3694 13.0768C17.3694 12.6994 17.0444 12.3939 16.6517 12.3939H15.0583V8.00957C15.0583 7.59629 14.7153 7.26387 14.291 7.26387ZM10.9958 11.2439H9.49722L10.2465 9.12812L10.9958 11.2439Z" fill="#3C1E1E"/>
</g>
<defs>
<clipPath id="clip0_474_3253">
<rect width="26" height="23" fill="white"/>
</clipPath>
</defs>
</svg>
