<svg width="20" height="20" viewBox="0 0 20 20" fill="none" xmlns="http://www.w3.org/2000/svg">
<path d="M10 6.02253C10.1425 4.31087 10.6946 2.59962 10.995 1.76837C11.1096 1.4517 11.4117 1.2517 11.745 1.29753C12.6754 1.42545 14.625 1.89753 16.3637 3.63587C18.1021 5.37462 18.5742 7.3242 18.7021 8.25462C18.7479 8.58795 18.5479 8.89003 18.2313 9.00462C17.4 9.30545 15.6887 9.85712 13.9771 9.99962C13.9771 9.99962 13.5796 8.8067 12.3862 7.61337C11.1929 6.42003 10 6.02253 10 6.02253Z" stroke="#555555" stroke-width="1.5" stroke-linecap="round" stroke-linejoin="round"/>
<path d="M6.66671 13.3327L1.66671 18.3327M13.9855 9.98353C13.9855 9.98353 13.5888 8.79228 12.398 7.60145C11.2063 6.4102 10.0155 6.01353 10.0155 6.01353V6.0127C7.83212 6.12186 6.12962 6.35103 5.03879 6.5352C4.17962 6.68061 3.50171 7.3152 3.25629 8.15145C1.62296 13.7139 1.28171 17.1289 1.28171 17.1289C1.28171 17.1289 1.08337 17.7244 1.67879 18.3198C2.27462 18.9156 2.86962 18.7169 2.86962 18.7169C2.86962 18.7169 6.28462 18.3752 11.8471 16.7423C12.6834 16.4964 13.318 15.8194 13.4634 14.9598C13.6475 13.8694 13.8763 12.1664 13.9855 9.98353Z" stroke="#555555" stroke-width="1.5" stroke-linecap="round" stroke-linejoin="round"/>
<path d="M6.25 12.0827C6.25 12.5247 6.4256 12.9486 6.73816 13.2612C7.05072 13.5738 7.47464 13.7493 7.91667 13.7493C8.35869 13.7493 8.78262 13.5738 9.09518 13.2612C9.40774 12.9486 9.58333 12.5247 9.58333 12.0827C9.58333 11.6407 9.40774 11.2167 9.09518 10.9042C8.78262 10.5916 8.35869 10.416 7.91667 10.416C7.47464 10.416 7.05072 10.5916 6.73816 10.9042C6.4256 11.2167 6.25 11.6407 6.25 12.0827Z" stroke="#555555" stroke-width="1.5" stroke-linecap="round" stroke-linejoin="round"/>
</svg>
