<svg width="20" height="20" viewBox="0 0 20 20" fill="none" xmlns="http://www.w3.org/2000/svg">
<path d="M8.76815 2.18634C8.92435 2.01475 9.11466 1.87766 9.32689 1.78386C9.53913 1.69005 9.76861 1.6416 10.0007 1.6416C10.2327 1.6416 10.4622 1.69005 10.6744 1.78386C10.8866 1.87766 11.077 2.01475 11.2332 2.18634L12.0832 3.11967C12.2482 3.30085 12.4512 3.44341 12.6776 3.53718C12.904 3.63095 13.1483 3.67363 13.3932 3.66217L14.654 3.60384C14.8857 3.59292 15.1171 3.63049 15.3334 3.71413C15.5498 3.79777 15.7463 3.92565 15.9104 4.08959C16.0745 4.25352 16.2025 4.4499 16.2864 4.66616C16.3702 4.88242 16.408 5.11381 16.3973 5.34551L16.3382 6.60717C16.3267 6.85199 16.3694 7.09631 16.4631 7.32274C16.5569 7.54917 16.6995 7.75214 16.8807 7.91717L17.814 8.76717C17.9856 8.92337 18.1227 9.11368 18.2165 9.32592C18.3103 9.53815 18.3587 9.76763 18.3587 9.99967C18.3587 10.2317 18.3103 10.4612 18.2165 10.6734C18.1227 10.8857 17.9856 11.076 17.814 11.2322L16.8807 12.0822C16.6995 12.2472 16.5569 12.4502 16.4631 12.6766C16.3694 12.903 16.3267 13.1474 16.3382 13.3922L16.3965 14.653C16.4074 14.8847 16.3698 15.1161 16.2862 15.3325C16.2026 15.5488 16.0747 15.7453 15.9107 15.9094C15.7468 16.0735 15.5504 16.2016 15.3342 16.2854C15.1179 16.3693 14.8865 16.407 14.6548 16.3963L13.3932 16.3372C13.1483 16.3257 12.904 16.3684 12.6776 16.4622C12.4512 16.5559 12.2482 16.6985 12.0832 16.8797L11.2332 17.813C11.077 17.9846 10.8866 18.1217 10.6744 18.2155C10.4622 18.3093 10.2327 18.3577 10.0007 18.3577C9.76861 18.3577 9.53913 18.3093 9.32689 18.2155C9.11466 18.1217 8.92435 17.9846 8.76815 17.813L7.91815 16.8797C7.75311 16.6985 7.55015 16.5559 7.32372 16.4622C7.09729 16.3684 6.85296 16.3257 6.60815 16.3372L5.34732 16.3955C5.11563 16.4064 4.88421 16.3689 4.66787 16.2852C4.45152 16.2016 4.25502 16.0737 4.09093 15.9098C3.92684 15.7458 3.79877 15.5494 3.71492 15.3332C3.63108 15.1169 3.59329 14.8855 3.60398 14.6538L3.66315 13.3922C3.6746 13.1474 3.63192 12.903 3.53815 12.6766C3.44438 12.4502 3.30183 12.2472 3.12065 12.0822L2.18732 11.2322C2.01572 11.076 1.87864 10.8857 1.78483 10.6734C1.69103 10.4612 1.64258 10.2317 1.64258 9.99967C1.64258 9.76763 1.69103 9.53815 1.78483 9.32592C1.87864 9.11368 2.01572 8.92337 2.18732 8.76717L3.12065 7.91717C3.30183 7.75214 3.44438 7.54917 3.53815 7.32274C3.63192 7.09631 3.6746 6.85199 3.66315 6.60717L3.60482 5.34634C3.5939 5.11465 3.63147 4.88323 3.71511 4.66689C3.79875 4.45055 3.92663 4.25404 4.09056 4.08995C4.2545 3.92586 4.45088 3.7978 4.66714 3.71395C4.8834 3.6301 5.11478 3.59231 5.34648 3.60301L6.60815 3.66217C6.85296 3.67363 7.09729 3.63095 7.32372 3.53718C7.55015 3.44341 7.75311 3.30085 7.91815 3.11967L8.76815 2.18634Z" stroke="#555555" stroke-width="1.5"/>
<path d="M7.5 9.99967L9.16667 11.6663L12.5 8.33301" stroke="#555555" stroke-width="1.5" stroke-linecap="round" stroke-linejoin="round"/>
</svg>
