<svg width="25" height="25" viewBox="0 0 25 25" fill="none" xmlns="http://www.w3.org/2000/svg">
<path d="M10.9597 2.73366C11.1549 2.51917 11.3928 2.34781 11.6581 2.23055C11.9234 2.1133 12.2103 2.05273 12.5003 2.05273C12.7904 2.05273 13.0772 2.1133 13.3425 2.23055C13.6078 2.34781 13.8457 2.51917 14.041 2.73366L15.1035 3.90033C15.3097 4.1268 15.5635 4.30499 15.8465 4.4222C16.1295 4.53942 16.4349 4.59277 16.741 4.57845L18.317 4.50553C18.6066 4.49189 18.8959 4.53884 19.1663 4.6434C19.4367 4.74795 19.6824 4.9078 19.8875 5.11271C20.0926 5.31763 20.2527 5.56311 20.3575 5.83343C20.4623 6.10376 20.5095 6.39299 20.4962 6.68262L20.4222 8.2597C20.4079 8.56571 20.4612 8.87112 20.5784 9.15416C20.6957 9.4372 20.8739 9.6909 21.1003 9.8972L22.267 10.9597C22.4815 11.1549 22.6528 11.3928 22.7701 11.6581C22.8874 11.9234 22.9479 12.2103 22.9479 12.5003C22.9479 12.7904 22.8874 13.0772 22.7701 13.3425C22.6528 13.6078 22.4815 13.8457 22.267 14.041L21.1003 15.1035C20.8739 15.3097 20.6957 15.5635 20.5784 15.8465C20.4612 16.1295 20.4079 16.4349 20.4222 16.741L20.4951 18.317C20.5088 18.6066 20.4618 18.8959 20.3573 19.1663C20.2527 19.4367 20.0929 19.6824 19.8879 19.8875C19.683 20.0926 19.4375 20.2527 19.1672 20.3575C18.8969 20.4623 18.6077 20.5095 18.318 20.4962L16.741 20.4222C16.4349 20.4079 16.1295 20.4612 15.8465 20.5784C15.5635 20.6957 15.3097 20.8739 15.1035 21.1003L14.041 22.267C13.8457 22.4815 13.6078 22.6528 13.3425 22.7701C13.0772 22.8874 12.7904 22.9479 12.5003 22.9479C12.2103 22.9479 11.9234 22.8874 11.6581 22.7701C11.3928 22.6528 11.1549 22.4815 10.9597 22.267L9.8972 21.1003C9.6909 20.8739 9.4372 20.6957 9.15416 20.5784C8.87112 20.4612 8.56571 20.4079 8.2597 20.4222L6.68366 20.4951C6.39404 20.5088 6.10477 20.4618 5.83434 20.3573C5.56392 20.2527 5.31829 20.0929 5.11317 19.8879C4.90806 19.683 4.74798 19.4375 4.64317 19.1672C4.53836 18.8969 4.49112 18.6077 4.50449 18.318L4.57845 16.741C4.59277 16.4349 4.53942 16.1295 4.4222 15.8465C4.30499 15.5635 4.1268 15.3097 3.90033 15.1035L2.73366 14.041C2.51917 13.8457 2.34781 13.6078 2.23055 13.3425C2.1133 13.0772 2.05273 12.7904 2.05273 12.5003C2.05273 12.2103 2.1133 11.9234 2.23055 11.6581C2.34781 11.3928 2.51917 11.1549 2.73366 10.9597L3.90033 9.8972C4.1268 9.6909 4.30499 9.4372 4.4222 9.15416C4.53942 8.87112 4.59277 8.56571 4.57845 8.2597L4.50553 6.68366C4.49189 6.39404 4.53884 6.10477 4.6434 5.83434C4.74795 5.56392 4.9078 5.31829 5.11271 5.11317C5.31763 4.90806 5.56311 4.74798 5.83343 4.64317C6.10376 4.53836 6.39299 4.49112 6.68262 4.50449L8.2597 4.57845C8.56571 4.59277 8.87112 4.53942 9.15416 4.4222C9.4372 4.30499 9.6909 4.1268 9.8972 3.90033L10.9597 2.73366Z" stroke="#40E0D0" stroke-width="1.5"/>
<path d="M9.375 12.5003L11.4583 14.5837L15.625 10.417" stroke="#40E0D0" stroke-width="1.5" stroke-linecap="round" stroke-linejoin="round"/>
</svg>
