<svg width="20" height="20" viewBox="0 0 20 20" fill="none" xmlns="http://www.w3.org/2000/svg">
<path d="M11.666 15.8333C14.8085 15.8333 16.3802 15.8333 17.356 14.8567C18.3318 13.88 18.3327 12.3092 18.3327 9.16667C18.3327 6.02417 18.3327 4.4525 17.356 3.47667C16.3793 2.50083 14.8085 2.5 11.666 2.5H8.33268C5.19018 2.5 3.61852 2.5 2.64268 3.47667C1.66685 4.45333 1.66602 6.02417 1.66602 9.16667C1.66602 12.3092 1.66602 13.8808 2.64268 14.8567C3.18685 15.4017 3.91602 15.6425 4.99935 15.7483" stroke="#555555" stroke-width="1.5" stroke-linecap="round" stroke-linejoin="round"/>
<path d="M9.99971 9.16699V9.17533M6.66638 9.16699V9.17533M13.333 9.16699V9.17533M11.6664 15.8337C10.6364 15.8337 9.50138 16.2503 8.46555 16.7878C6.80055 17.652 5.96805 18.0845 5.55805 17.8087C5.14805 17.5328 5.22555 16.6795 5.38138 14.972L5.41638 14.5837" stroke="#555555" stroke-width="1.5" stroke-linecap="round"/>
</svg>
