<svg width="20" height="20" viewBox="0 0 20 20" fill="none" xmlns="http://www.w3.org/2000/svg">
<path d="M4.16667 10.8333V4.16667C4.16667 3.72464 4.34226 3.30072 4.65482 2.98816C4.96738 2.67559 5.39131 2.5 5.83333 2.5H15.8333C16.2754 2.5 16.6993 2.67559 17.0118 2.98816C17.3244 3.30072 17.5 3.72464 17.5 4.16667V15C17.5 15.8333 17 17.5 15 17.5M15 17.5H5C4.16667 17.5 2.5 17 2.5 15V13.3333H12.5V15C12.5 17 14.1667 17.5 15 17.5ZM7.5 5.83333H14.1667M7.5 9.16667H10.8333" stroke="#555555" stroke-width="1.5" stroke-linecap="round" stroke-linejoin="round"/>
</svg>
