<svg width="25" height="25" viewBox="0 0 25 25" fill="none" xmlns="http://www.w3.org/2000/svg">
<g clip-path="url(#clip0_505_3362)">
<path d="M12.5 7.52866C12.6781 5.38907 13.3682 3.25001 13.7438 2.21095C13.887 1.81511 14.2646 1.56511 14.6812 1.6224C15.8443 1.7823 18.2812 2.37241 20.4547 4.54532C22.6276 6.71876 23.2177 9.15574 23.3776 10.3188C23.4349 10.7354 23.1849 11.113 22.7891 11.2563C21.75 11.6323 19.6109 12.3219 17.4714 12.5C17.4714 12.5 16.9745 11.0089 15.4828 9.5172C13.9911 8.02553 12.5 7.52866 12.5 7.52866Z" stroke="#40E0D0" stroke-width="1.5" stroke-linecap="round" stroke-linejoin="round"/>
<path d="M8.33338 16.6666L2.08338 22.9166M17.4818 12.4801C17.4818 12.4801 16.986 10.9911 15.4974 9.50254C14.0079 8.01348 12.5193 7.51764 12.5193 7.51764V7.5166C9.79015 7.65306 7.66203 7.93952 6.29849 8.16973C5.22453 8.3515 4.37713 9.14473 4.07036 10.19C2.0287 17.1432 1.60213 21.4119 1.60213 21.4119C1.60213 21.4119 1.35422 22.1562 2.09849 22.9005C2.84328 23.6452 3.58703 23.3968 3.58703 23.3968C3.58703 23.3968 7.85578 22.9697 14.8089 20.9286C15.8542 20.6213 16.6474 19.7749 16.8292 18.7005C17.0594 17.3374 17.3454 15.2088 17.4818 12.4801Z" stroke="#40E0D0" stroke-width="1.5" stroke-linecap="round" stroke-linejoin="round"/>
<path d="M7.8125 15.1038C7.8125 15.6564 8.03199 16.1863 8.42269 16.577C8.8134 16.9677 9.3433 17.1872 9.89583 17.1872C10.4484 17.1872 10.9783 16.9677 11.369 16.577C11.7597 16.1863 11.9792 15.6564 11.9792 15.1038C11.9792 14.5513 11.7597 14.0214 11.369 13.6307C10.9783 13.24 10.4484 13.0205 9.89583 13.0205C9.3433 13.0205 8.8134 13.24 8.42269 13.6307C8.03199 14.0214 7.8125 14.5513 7.8125 15.1038Z" stroke="#40E0D0" stroke-width="1.5" stroke-linecap="round" stroke-linejoin="round"/>
</g>
<defs>
<clipPath id="clip0_505_3362">
<rect width="25" height="25" fill="white"/>
</clipPath>
</defs>
</svg>
