<svg width="25" height="25" viewBox="0 0 25 25" fill="none" xmlns="http://www.w3.org/2000/svg">
<path d="M5.20833 13.5417V5.20833C5.20833 4.6558 5.42783 4.12589 5.81853 3.73519C6.20923 3.34449 6.73913 3.125 7.29167 3.125H19.7917C20.3442 3.125 20.8741 3.34449 21.2648 3.73519C21.6555 4.12589 21.875 4.6558 21.875 5.20833V18.75C21.875 19.7917 21.25 21.875 18.75 21.875M18.75 21.875H6.25C5.20833 21.875 3.125 21.25 3.125 18.75V16.6667H15.625V18.75C15.625 21.25 17.7083 21.875 18.75 21.875ZM9.375 7.29167H17.7083M9.375 11.4583H13.5417" stroke="#40E0D0" stroke-width="1.5" stroke-linecap="round" stroke-linejoin="round"/>
</svg>
