<svg width="20" height="20" viewBox="0 0 20 20" fill="none" xmlns="http://www.w3.org/2000/svg">
<g clip-path="url(#clip0_185_818)">
<path d="M11.9666 3.39926C11.9666 3.39926 12.0624 5.04093 13.5107 6.48843C14.9591 7.93676 16.5999 8.03343 16.5999 8.03343L17.3724 7.26093C17.9869 6.6464 18.3322 5.81292 18.3322 4.94384C18.3322 4.07477 17.9869 3.24129 17.3724 2.62676C16.7579 2.01223 15.9244 1.66699 15.0553 1.66699C14.1862 1.66699 13.3528 2.01223 12.7382 2.62676L11.9657 3.39926L9.99906 5.36593M16.5999 8.03259L12.2166 12.4176L9.63239 15.0001L9.49906 15.1343C9.01739 15.6151 8.77656 15.8559 8.51156 16.0626C8.19866 16.3064 7.86031 16.5157 7.50239 16.6868C7.19906 16.8309 6.87656 16.9384 6.23073 17.1534L3.49656 18.0651M3.49656 18.0651L2.82823 18.2884C2.67244 18.3407 2.50517 18.3484 2.34521 18.3108C2.18526 18.2732 2.03897 18.1917 1.92278 18.0755C1.8066 17.9593 1.72512 17.8131 1.68751 17.6531C1.6499 17.4932 1.65765 17.3259 1.70989 17.1701L1.93323 16.5018M3.49656 18.0651L1.93323 16.5018M1.93323 16.5018L2.84489 13.7676C3.05989 13.1218 3.16739 12.7993 3.31156 12.4959C3.48323 12.1365 3.69128 11.8001 3.93573 11.4868C4.14239 11.2218 4.38323 10.9809 4.86406 10.5001L7.08239 8.28259" stroke="white" stroke-width="1.5" stroke-linecap="round"/>
</g>
<defs>
<clipPath id="clip0_185_818">
<rect width="20" height="20" fill="white"/>
</clipPath>
</defs>
</svg>
