<svg width="25" height="25" viewBox="0 0 25 25" fill="none" xmlns="http://www.w3.org/2000/svg">
<path d="M20.3125 21.3542C19.8177 11.6323 5.18229 11.6323 4.6875 21.3542M15.625 7.8125C15.625 8.6413 15.2958 9.43616 14.7097 10.0222C14.1237 10.6083 13.3288 10.9375 12.5 10.9375C11.6712 10.9375 10.8763 10.6083 10.2903 10.0222C9.70424 9.43616 9.375 8.6413 9.375 7.8125C9.375 6.9837 9.70424 6.18884 10.2903 5.60279C10.8763 5.01674 11.6712 4.6875 12.5 4.6875C13.3288 4.6875 14.1237 5.01674 14.7097 5.60279C15.2958 6.18884 15.625 6.9837 15.625 7.8125Z" stroke="#666666" stroke-width="1.5" stroke-linecap="round" stroke-linejoin="round"/>
</svg>
