<svg width="28" height="28" viewBox="0 0 28 28" fill="none" xmlns="http://www.w3.org/2000/svg">
<path d="M7.00065 22.1663H11.308V16.2431C11.308 15.9763 11.3986 15.7527 11.5798 15.5723C11.7603 15.3911 11.9839 15.3005 12.2507 15.3005H15.7507C16.0174 15.3005 16.2414 15.3911 16.4227 15.5723C16.6031 15.7527 16.6933 15.9763 16.6933 16.2431V22.1663H21.0007V12.0256C21.0007 11.9058 20.9746 11.797 20.9225 11.699C20.8704 11.601 20.7992 11.5154 20.709 11.4423L14.4277 6.70796C14.3079 6.60373 14.1655 6.55162 14.0007 6.55162C13.8358 6.55162 13.6938 6.60373 13.5748 6.70796L7.29232 11.4423C7.20287 11.517 7.13171 11.6025 7.07882 11.699C7.02593 11.7954 6.99987 11.9043 7.00065 12.0256V22.1663ZM5.83398 22.1663V12.0256C5.83398 11.727 5.90087 11.4442 6.03465 11.1775C6.16843 10.9107 6.35276 10.691 6.58765 10.5183L12.8702 5.76062C13.1992 5.5094 13.5748 5.38379 13.9972 5.38379C14.4195 5.38379 14.7975 5.5094 15.1312 5.76062L21.4137 10.5171C21.6493 10.6898 21.8336 10.9099 21.9667 11.1775C22.1004 11.4442 22.1673 11.727 22.1673 12.0256V22.1663C22.1673 22.479 22.051 22.7516 21.8185 22.9841C21.5859 23.2167 21.3133 23.333 21.0007 23.333H16.4693C16.2018 23.333 15.9778 23.2427 15.7973 23.0623C15.6169 22.8811 15.5267 22.6571 15.5267 22.3903V16.4683H12.4747V22.3903C12.4747 22.6578 12.3844 22.8818 12.204 23.0623C12.0235 23.2427 11.7999 23.333 11.5332 23.333H7.00065C6.68798 23.333 6.41537 23.2167 6.18282 22.9841C5.95026 22.7516 5.83398 22.479 5.83398 22.1663Z" fill="#666666"/>
</svg>
