<svg width="25" height="25" viewBox="0 0 25 25" fill="none" xmlns="http://www.w3.org/2000/svg">
<path d="M18.75 3.125C19.5788 3.125 20.3737 3.45424 20.9597 4.04029C21.5458 4.62634 21.875 5.4212 21.875 6.25V8.48229C21.875 8.83021 21.875 9.00417 21.7948 9.13125C21.7532 9.19733 21.6973 9.25322 21.6313 9.29479C21.5042 9.375 21.3302 9.375 20.9823 9.375H15.625M18.75 3.125C17.9212 3.125 17.1263 3.45424 16.5403 4.04029C15.9542 4.62634 15.625 5.4212 15.625 6.25V9.375M18.75 3.125H7.29167C5.32708 3.125 4.34583 3.125 3.73542 3.73542C3.125 4.34583 3.125 5.32708 3.125 7.29167V21.875L6.25 20.8333L9.375 21.875L12.5 20.8333L15.625 21.875V9.375" stroke="#666666" stroke-width="1.5"/>
<path d="M7.29102 7.29199H11.4577M8.33268 11.4587H7.29102M7.29102 15.6253H10.416" stroke="#666666" stroke-width="1.5" stroke-linecap="round"/>
</svg>
