<svg width="20" height="20" viewBox="0 0 20 20" fill="none" xmlns="http://www.w3.org/2000/svg">
<path d="M8.94199 4.22746C9.2933 4.18678 9.64667 4.16647 10.0003 4.16663C13.887 4.16663 17.0003 6.58579 18.3337 9.99996C18.0109 10.8304 17.5748 11.6123 17.0378 12.3233M5.43366 5.43246C3.73366 6.46996 2.41699 8.07746 1.66699 9.99996C3.00033 13.4141 6.11366 15.8333 10.0003 15.8333C11.6104 15.8418 13.1913 15.4033 14.567 14.5666M8.23366 8.23329C8.00149 8.46546 7.81733 8.74108 7.69168 9.04442C7.56603 9.34776 7.50136 9.67288 7.50136 10.0012C7.50136 10.3295 7.56603 10.6547 7.69168 10.958C7.81733 11.2613 8.00149 11.537 8.23366 11.7691C8.46582 12.0013 8.74145 12.1855 9.04479 12.3111C9.34813 12.4368 9.67324 12.5014 10.0016 12.5014C10.3299 12.5014 10.655 12.4368 10.9584 12.3111C11.2617 12.1855 11.5373 12.0013 11.7695 11.7691" stroke="#555555" stroke-width="1.2" stroke-linecap="round" stroke-linejoin="round"/>
<path d="M3.33398 3.33331L16.6673 16.6666" stroke="#555555" stroke-width="1.2" stroke-linecap="round"/>
</svg>
