<svg width="20" height="20" viewBox="0 0 20 20" fill="none" xmlns="http://www.w3.org/2000/svg">
<path d="M7.50008 3.71669C8.30845 3.45986 9.1519 3.33054 10.0001 3.33336C13.4851 3.33336 15.8567 5.41669 17.2709 7.25336C17.9792 8.17503 18.3334 8.63419 18.3334 10C18.3334 11.3667 17.9792 11.8259 17.2709 12.7467C15.8567 14.5834 13.4851 16.6667 10.0001 16.6667C6.51508 16.6667 4.14341 14.5834 2.72925 12.7467C2.02091 11.8267 1.66675 11.3659 1.66675 10C1.66675 8.63336 2.02091 8.17419 2.72925 7.25336C3.16133 6.68904 3.64236 6.16395 4.16675 5.68419" stroke="#999999" stroke-width="1.2" stroke-linecap="round"/>
<path d="M12.5 10C12.5 10.663 12.2366 11.2989 11.7678 11.7678C11.2989 12.2366 10.663 12.5 10 12.5C9.33696 12.5 8.70107 12.2366 8.23223 11.7678C7.76339 11.2989 7.5 10.663 7.5 10C7.5 9.33696 7.76339 8.70107 8.23223 8.23223C8.70107 7.76339 9.33696 7.5 10 7.5C10.663 7.5 11.2989 7.76339 11.7678 8.23223C12.2366 8.70107 12.5 9.33696 12.5 10Z" stroke="#999999" stroke-width="1.2"/>
</svg>
