<svg width="27" height="27" viewBox="0 0 27 27" fill="none" xmlns="http://www.w3.org/2000/svg">
<path d="M16.1564 4.58887C16.1564 4.58887 16.2858 6.80512 18.241 8.75924C20.1963 10.7145 22.4114 10.845 22.4114 10.845L23.4543 9.80212C24.2839 8.9725 24.75 7.8473 24.75 6.67405C24.75 5.5008 24.2839 4.3756 23.4543 3.54599C22.6247 2.71638 21.4995 2.25031 20.3262 2.25031C19.153 2.25031 18.0278 2.71638 17.1982 3.54599L16.1553 4.58887L13.5003 7.24387M22.4114 10.8439L16.4939 16.7636L13.0053 20.25L12.8253 20.4311C12.175 21.0802 11.8499 21.4054 11.4922 21.6844C11.0698 22.0136 10.613 22.2961 10.1298 22.527C9.72029 22.7216 9.28492 22.8667 8.41304 23.157L4.72192 24.3877M4.72192 24.3877L3.81967 24.6892C3.60935 24.7598 3.38354 24.7702 3.1676 24.7195C2.95167 24.6687 2.75417 24.5587 2.59732 24.4018C2.44047 24.245 2.33048 24.0475 2.2797 23.8316C2.22893 23.6156 2.23939 23.3898 2.30992 23.1795L2.61142 22.2772M4.72192 24.3877L2.61142 22.2772M2.61142 22.2772L3.84217 18.5861C4.13242 17.7142 4.27754 17.2789 4.47217 16.8694C4.70392 16.3841 4.98479 15.93 5.31479 15.507C5.59379 15.1492 5.91892 14.8241 6.56804 14.175L9.56279 11.1814" stroke="#40E0D0" stroke-width="1.2" stroke-linecap="round"/>
</svg>
