<svg width="15" height="15" viewBox="0 0 15 15" fill="none" xmlns="http://www.w3.org/2000/svg">
<path d="M7.4997 12.315L2.04532 7.00749C2.00137 6.96379 1.94918 6.92924 1.89179 6.90585C1.83439 6.88245 1.77293 6.87067 1.71095 6.87118C1.64897 6.8717 1.58771 6.8845 1.53071 6.90884C1.47371 6.93319 1.42211 6.9686 1.37889 7.01302C1.33566 7.05744 1.30168 7.11 1.2789 7.16764C1.25612 7.22528 1.245 7.28687 1.24618 7.34884C1.24736 7.41081 1.26082 7.47193 1.28577 7.52866C1.31073 7.58539 1.34669 7.63662 1.39157 7.67936L7.17282 13.3044C7.26033 13.3895 7.37761 13.4371 7.4997 13.4371C7.62179 13.4371 7.73907 13.3895 7.82657 13.3044L13.6078 7.67936C13.6527 7.63661 13.6887 7.58539 13.7136 7.52866C13.7386 7.47193 13.752 7.41081 13.7532 7.34884C13.7544 7.28687 13.7433 7.22528 13.7205 7.16764C13.6977 7.11 13.6637 7.05744 13.6205 7.01302C13.5773 6.9686 13.5257 6.93319 13.4687 6.90884C13.4117 6.8845 13.3504 6.8717 13.2884 6.87118C13.2265 6.87067 13.165 6.88245 13.1076 6.90584C13.0502 6.92924 12.998 6.96379 12.9541 7.00748L7.4997 12.315Z" fill="#555555"/>
</svg>
