<svg width="30" height="30" viewBox="0 0 30 30" fill="none" xmlns="http://www.w3.org/2000/svg">
<path d="M11.25 15C11.25 15.8288 10.9208 16.6237 10.3347 17.2097C9.74866 17.7958 8.9538 18.125 8.125 18.125C7.2962 18.125 6.50134 17.7958 5.91529 17.2097C5.32924 16.6237 5 15.8288 5 15C5 14.1712 5.32924 13.3763 5.91529 12.7903C6.50134 12.2042 7.2962 11.875 8.125 11.875C8.9538 11.875 9.74866 12.2042 10.3347 12.7903C10.9208 13.3763 11.25 14.1712 11.25 15Z" stroke="#555555" stroke-width="1.2"/>
<path d="M17.5 8.125L11.25 12.5M17.5 21.875L11.25 17.5" stroke="#555555" stroke-width="1.2" stroke-linecap="round"/>
<path d="M23.75 23.125C23.75 23.9538 23.4208 24.7487 22.8347 25.3347C22.2487 25.9208 21.4538 26.25 20.625 26.25C19.7962 26.25 19.0013 25.9208 18.4153 25.3347C17.8292 24.7487 17.5 23.9538 17.5 23.125C17.5 22.2962 17.8292 21.5013 18.4153 20.9153C19.0013 20.3292 19.7962 20 20.625 20C21.4538 20 22.2487 20.3292 22.8347 20.9153C23.4208 21.5013 23.75 22.2962 23.75 23.125ZM23.75 6.875C23.75 7.7038 23.4208 8.49866 22.8347 9.08471C22.2487 9.67076 21.4538 10 20.625 10C19.7962 10 19.0013 9.67076 18.4153 9.08471C17.8292 8.49866 17.5 7.7038 17.5 6.875C17.5 6.0462 17.8292 5.25134 18.4153 4.66529C19.0013 4.07924 19.7962 3.75 20.625 3.75C21.4538 3.75 22.2487 4.07924 22.8347 4.66529C23.4208 5.25134 23.75 6.0462 23.75 6.875Z" stroke="#555555" stroke-width="1.2"/>
</svg>
