<svg width="11" height="10" viewBox="0 0 11 10" fill="none" xmlns="http://www.w3.org/2000/svg">
<path d="M4.13744 0.55722C4.50426 -0.186026 5.5641 -0.186025 5.93092 0.55722L6.71181 2.13949C6.85747 2.43463 7.13904 2.6392 7.46475 2.68653L9.21089 2.94026C10.0311 3.05944 10.3586 4.06741 9.7651 4.64595L8.50158 5.87757C8.2659 6.10731 8.15835 6.43831 8.21399 6.7627L8.51226 8.50178C8.65237 9.31869 7.79494 9.94165 7.06131 9.55596L5.49952 8.73488C5.2082 8.58172 4.86016 8.58172 4.56884 8.73488L3.00705 9.55596C2.27342 9.94165 1.41599 9.31869 1.5561 8.50178L1.85437 6.7627C1.91001 6.43831 1.80246 6.10731 1.56678 5.87757L0.303261 4.64595C-0.290256 4.06741 0.037255 3.05944 0.857475 2.94026L2.60361 2.68653C2.92932 2.6392 3.21089 2.43463 3.35655 2.13949L4.13744 0.55722Z" fill="white"/>
</svg>
