<svg width="25" height="25" viewBox="0 0 25 25" fill="none" xmlns="http://www.w3.org/2000/svg">
<path d="M20.3125 5.72786L19.6667 16.1706C19.5021 18.8383 19.4198 20.1727 18.75 21.132C18.4193 21.6062 17.9937 22.0063 17.5 22.307C16.5031 22.9154 15.1667 22.9154 12.4938 22.9154C9.81667 22.9154 8.47812 22.9154 7.47917 22.306C6.9853 22.0047 6.5596 21.6038 6.22917 21.1289C5.56042 20.1685 5.47917 18.832 5.31875 16.1602L4.6875 5.72786M3.125 5.72786H21.875M16.725 5.72786L16.0135 4.2612C15.5417 3.2862 15.3052 2.79974 14.8979 2.49557C14.8074 2.42819 14.7116 2.36827 14.6115 2.31641C14.1604 2.08203 13.6187 2.08203 12.5365 2.08203C11.426 2.08203 10.8708 2.08203 10.4115 2.32578C10.3099 2.38017 10.2131 2.44288 10.1219 2.51328C9.71042 2.82891 9.48021 3.33411 9.01979 4.34349L8.38854 5.72786M9.89583 17.1862V10.9362M15.1042 17.1862V10.9362" stroke="#40E0D0" stroke-width="1.5" stroke-linecap="round"/>
</svg>
