<svg width="25" height="25" viewBox="0 0 25 25" fill="none" xmlns="http://www.w3.org/2000/svg">
<path d="M4.16602 22.9167H8.33268M20.8327 22.9167H12.4993M19.1004 8.44895L19.8733 7.67811C20.1777 7.37382 20.4191 7.01255 20.5839 6.61494C20.7486 6.21733 20.8334 5.79116 20.8335 5.36077C20.8335 4.93038 20.7488 4.5042 20.5842 4.10655C20.4195 3.7089 20.1781 3.34758 19.8738 3.04322C19.5695 2.73885 19.2083 2.4974 18.8107 2.33265C18.413 2.16791 17.9869 2.08309 17.5565 2.08304C17.1261 2.08299 16.6999 2.16771 16.3023 2.33237C15.9046 2.49703 15.5433 2.7384 15.2389 3.0427L14.466 3.81561C14.466 3.81561 14.5629 5.45728 16.0108 6.9052C17.4587 8.35311 19.1004 8.44999 19.1004 8.44999L15.5514 12M14.466 3.81457L7.36497 10.9167C6.88372 11.3979 6.6431 11.6375 6.43685 11.9031C6.19252 12.2157 5.98328 12.5542 5.81289 12.9125C5.6681 13.2156 5.56081 13.5385 5.34518 14.1833L4.43372 16.9187L4.21185 17.5875C4.15984 17.7432 4.15224 17.9103 4.1899 18.07C4.22756 18.2298 4.30899 18.3759 4.42506 18.492C4.54112 18.6081 4.68724 18.6895 4.847 18.7272C5.00677 18.7648 5.17387 18.7572 5.32956 18.7052L5.99727 18.4833M11.9993 15.5521C11.5181 16.0333 11.2785 16.2729 11.0129 16.4802C10.6997 16.7246 10.3632 16.9326 10.0035 17.1042C9.70039 17.2489 9.37747 17.3562 8.73268 17.5708L5.99727 18.4833M5.99727 18.4833L4.43477 16.9198" stroke="#999999" stroke-width="1.875" stroke-linecap="round"/>
</svg>
