<svg width="100" height="29" viewBox="0 0 100 29" fill="none" xmlns="http://www.w3.org/2000/svg">
<g clip-path="url(#clip0_1705_8612)">
<path d="M36.9387 8.14447L19.295 0.107011C19.295 0.107011 19.2811 0.100032 19.2742 0.0977058C18.9453 -0.0325686 18.5747 -0.0325686 18.2458 0.0977058C18.2389 0.100032 18.2319 0.104685 18.225 0.107011L0.581328 8.14447C0.226973 8.29103 0 8.633 0 9.01917V10.6895C0 11.0035 0.155175 11.2966 0.412257 11.4734C0.671654 11.6502 0.998217 11.6851 1.29004 11.5688C1.29699 11.5665 1.30393 11.5618 1.31088 11.5595L3.16141 10.7174V28.1044C3.16141 28.5975 3.56208 29 4.05308 29H33.4646C33.9556 29 34.3563 28.5975 34.3563 28.1044V10.7174L36.2068 11.5595C36.2068 11.5595 36.2207 11.5665 36.2276 11.5688C36.5171 11.6851 36.846 11.6479 37.1054 11.4734C37.3648 11.2966 37.5177 11.0035 37.5177 10.6895V9.01917C37.5177 8.633 37.2907 8.29103 36.9363 8.14447H36.9387ZM31.0281 9.20063V25.6547H6.49188V9.20063L18.76 3.61279L31.0281 9.20063Z" fill="#40E0D0"/>
<path d="M22.1903 11.1947C26.1021 10.5643 27.8438 15.9497 24.3095 17.748C26.116 21.291 21.5557 24.6176 18.7602 21.7981C15.9648 24.6176 11.4045 21.291 13.211 17.748C9.67669 15.9497 11.4184 10.5643 15.3302 11.1947C15.9416 7.26322 21.5789 7.26322 22.1903 11.1947Z" fill="#FFCCDB"/>
<path d="M22.1922 14.4527C21.8216 14.0712 21.2125 14.0619 20.8327 14.4341L19.8043 15.439V13.1686C19.8043 12.6358 19.3735 12.2031 18.8432 12.2031C18.3128 12.2031 17.882 12.6358 17.882 13.1686V17.8259L16.6869 16.6604C16.3071 16.2882 15.698 16.2975 15.3274 16.679C14.9568 17.0605 14.9661 17.6723 15.3459 18.0445L17.8797 20.5197V25.8401C17.8797 26.3728 18.3105 26.8055 18.8409 26.8055C19.3712 26.8055 19.802 26.3728 19.802 25.8401V18.1329L22.1713 15.8206C22.5512 15.4484 22.5604 14.8389 22.1899 14.455L22.1922 14.4527Z" fill="#40E0D0"/>
<path d="M70.2991 24.2775H50.5641V20.2808C50.5641 19.5015 49.9364 18.8711 49.1605 18.8711H48.1623C47.3864 18.8711 46.7588 19.5015 46.7588 20.2808V26.6899C46.7588 27.4692 47.3864 28.0996 48.1623 28.0996H70.2991C71.075 28.0996 71.7026 27.4692 71.7026 26.6899V25.6872C71.7026 24.9079 71.075 24.2775 70.2991 24.2775Z" fill="#121212"/>
<path d="M70.3594 1.02734H69.2408C68.4996 1.02734 67.8975 1.63219 67.8975 2.37661V18.9168C67.8975 19.6822 68.5158 20.301 69.2755 20.301H70.3224C71.0843 20.301 71.7004 19.6798 71.7004 18.9168V2.37661C71.7004 1.63219 71.0982 1.02734 70.3571 1.02734H70.3594Z" fill="#121212"/>
<path d="M98.6546 18.4023H77.2427C76.5016 18.4023 75.8994 19.0072 75.8994 19.7516V26.7143C75.8994 27.4797 76.5178 28.0985 77.2775 28.0985H98.6198C99.3818 28.0985 99.9979 27.4773 99.9979 26.7143V19.7516C99.9979 19.0072 99.3957 18.4023 98.6546 18.4023ZM79.7024 22.2245H96.1903V24.2763H79.7024V22.2245Z" fill="#121212"/>
<path d="M98.6035 13.4639H89.8211V12.4054H96.9522H98.6197C99.3817 12.4054 99.9978 11.7843 99.9978 11.0212V2.37661C99.9978 1.63219 99.3956 1.02734 98.6545 1.02734H97.5358C96.7947 1.02734 96.1925 1.63219 96.1925 2.37661V3.30947H79.7046V2.37661C79.7046 1.63219 79.1024 1.02734 78.3612 1.02734H77.2426C76.5015 1.02734 75.8993 1.63219 75.8993 2.37661V11.0189C75.8993 11.7843 76.5177 12.4031 77.2773 12.4031H78.9449C78.9449 12.4031 78.9588 12.4031 78.9657 12.4031C78.9727 12.4031 78.9819 12.4031 78.9889 12.4031H86.0135V13.4616H77.2959C76.5223 13.4616 75.897 14.092 75.897 14.8667V15.8786C75.897 16.6556 76.5246 17.2837 77.2959 17.2837H98.6035C99.3747 17.2837 100 16.6556 100 15.8809V14.8643C100 14.0897 99.3747 13.4616 98.6035 13.4616V13.4639ZM96.1925 6.82223V8.89266H79.7046V6.82223H96.1925Z" fill="#121212"/>
<path d="M54.8673 1.52344C48.4704 1.52344 45.4062 4.53138 45.4062 9.50972C45.4062 14.4881 48.4727 17.496 54.8673 17.496C61.2619 17.496 64.3284 14.4881 64.3284 9.50972C64.3284 4.53138 61.2619 1.52344 54.8673 1.52344ZM54.8673 13.6738C51.5577 13.6738 49.5242 11.9058 49.5242 9.50972C49.5242 7.1136 51.56 5.34559 54.8673 5.34559C58.1746 5.34559 60.2035 7.11593 60.2035 9.50972C60.2035 11.9035 58.1746 13.6738 54.8673 13.6738Z" fill="#121212"/>
</g>
<defs>
<clipPath id="clip0_1705_8612">
<rect width="100" height="29" fill="white"/>
</clipPath>
</defs>
</svg>
